<svg id="omrs-logo-white" version="1.0" xmlns="http://www.w3.org/2000/svg"
 viewBox="0 0 400.000000 400.000000"
 preserveAspectRatio="xMidYMid meet">

<g transform="translate(0.000000,400.000000) scale(0.100000,-0.100000)"
fill="#000000" stroke="none">
<path d="M1795 3989 c-272 -40 -457 -95 -670 -199 -504 -246 -888 -705 -1043
-1245 -110 -382 -107 -747 9 -1130 111 -363 339 -708 631 -951 243 -203 586
-370 868 -424 186 -36 225 -40 417 -40 185 0 215 3 355 30 285 56 525 154 754
308 451 303 745 751 854 1300 27 140 30 170 30 355 0 198 -6 250 -45 439 -40
196 -154 465 -276 653 -183 281 -422 500 -744 680 -125 70 -369 158 -525 189
-223 44 -458 58 -615 35z m525 -94 c620 -105 1142 -497 1415 -1060 78 -162
125 -302 161 -481 25 -124 28 -161 28 -349 1 -212 -2 -243 -46 -445 -18 -85
-64 -231 -88 -285 -5 -11 -22 -50 -39 -87 -132 -299 -405 -614 -696 -803 -206
-134 -453 -236 -665 -275 -36 -6 -87 -17 -115 -23 -30 -7 -138 -11 -270 -11
-186 0 -238 4 -335 23 -201 39 -335 83 -509 167 -499 242 -862 683 -1020 1239
-81 285 -81 680 -1 978 108 406 344 765 673 1025 195 154 437 278 682 348 234
67 568 83 825 39z"/>
<path d="M1856 3774 c-9 -8 -16 -25 -16 -37 -1 -12 -11 -60 -23 -107 l-22 -85
-42 -3 c-24 -2 -43 -2 -43 0 -1 2 -9 48 -18 103 -17 98 -18 100 -46 103 -16 2
-33 -1 -38 -6 -11 -11 19 -220 34 -239 6 -7 20 -11 32 -9 11 3 50 10 85 17 56
11 64 16 73 41 8 23 16 28 44 28 23 0 37 -6 44 -20 9 -17 20 -20 65 -18 59 2
65 9 65 75 0 53 16 46 57 -24 l40 -68 48 3 c27 1 56 9 66 18 24 22 73 15 77
-11 6 -32 22 -45 55 -45 l30 0 -7 108 c-9 138 -13 151 -43 158 -31 8 -40 -1
-93 -101 -73 -136 -72 -136 -64 -2 4 77 3 117 -3 117 -13 0 -23 -33 -23 -75 0
-30 -15 -64 -23 -55 -3 3 -19 30 -36 61 -70 126 -97 116 -107 -39 -4 -56 -10
-102 -14 -102 -8 0 -16 18 -55 130 -14 41 -31 80 -37 87 -14 18 -43 16 -62 -3z
m31 -113 c12 -33 8 -41 -19 -41 -19 0 -22 10 -12 48 8 30 17 28 31 -7z m453
-31 c0 -31 -19 -48 -39 -35 -13 7 14 65 29 65 6 0 10 -14 10 -30z"/>
<path d="M1425 3696 c-53 -23 -70 -52 -69 -112 2 -64 39 -130 80 -140 70 -18
154 33 154 94 0 113 -84 194 -165 158z m55 -54 c19 -41 40 -114 40 -140 0 -32
-29 -40 -50 -14 -27 32 -55 159 -40 177 15 19 35 10 50 -23z"/>
<path d="M2638 3652 c-21 -26 -90 -192 -86 -209 3 -17 109 -63 146 -63 56 0
122 111 107 180 -8 36 -27 53 -97 83 -52 23 -58 24 -70 9z m100 -71 c8 -53
-53 -161 -90 -161 -26 0 -21 29 22 123 23 50 35 67 48 65 9 -2 19 -14 20 -27z"/>
<path d="M1198 3595 c-36 -19 -69 -39 -72 -44 -12 -18 13 -22 43 -6 17 8 33
15 37 15 4 0 5 -45 2 -100 -5 -108 -14 -127 -70 -156 -25 -13 -28 -12 -47 15
-26 36 -26 39 1 68 27 28 17 41 -18 23 -51 -28 -88 32 -40 64 28 18 34 36 13
36 -20 0 -116 -73 -117 -88 0 -18 118 -182 137 -189 7 -3 39 12 71 33 31 21
96 57 143 80 48 23 90 47 94 53 13 22 -5 25 -40 8 -20 -9 -41 -17 -46 -17 -8
0 -10 38 -8 117 3 72 0 117 -6 119 -5 2 -40 -12 -77 -31z"/>
<path d="M2825 3441 c-36 -54 -65 -100 -65 -103 0 -3 32 -26 71 -52 79 -53
116 -51 49 3 l-40 32 17 31 c23 39 36 43 66 23 36 -24 49 2 14 27 -23 17 -25
23 -15 41 17 34 30 37 60 16 27 -20 55 -18 42 3 -8 13 -110 78 -124 78 -5 0
-39 -44 -75 -99z"/>
<path d="M870 3371 c0 -4 18 -31 40 -58 22 -28 37 -53 34 -55 -5 -5 -137 26
-153 37 -5 2 -19 -3 -31 -13 l-23 -18 78 -90 c82 -94 90 -101 99 -85 3 5 -12
29 -33 53 -22 23 -36 47 -32 51 5 5 38 -2 76 -14 53 -17 72 -19 91 -10 13 6
24 16 24 23 0 7 -34 53 -75 101 -70 80 -95 101 -95 78z"/>
<path d="M1735 3355 c-127 -27 -142 -31 -250 -75 -337 -134 -619 -414 -760
-755 -46 -111 -58 -152 -84 -284 -23 -115 -29 -340 -11 -433 6 -29 15 -78 21
-108 18 -93 68 -230 125 -340 197 -382 557 -646 999 -731 42 -9 136 -14 235
-14 183 1 294 19 459 77 374 131 702 456 836 831 63 175 80 281 79 477 0 195
-11 264 -70 439 -39 117 -95 231 -168 341 -65 97 -260 293 -358 358 -145 98
-343 183 -488 211 -30 6 -79 15 -108 21 -98 19 -335 11 -457 -15z m515 -69
c172 -33 373 -119 517 -222 105 -74 251 -226 326 -339 151 -229 221 -459 221
-730 0 -724 -587 -1311 -1309 -1309 -360 1 -679 134 -930 388 -190 192 -310
417 -362 678 -22 113 -23 374 -1 483 52 252 161 470 328 648 228 244 499 380
840 421 64 8 294 -4 370 -18z"/>
<path fill="#ED1B2E" d="M1647 3093 c-4 -3 -7 -165 -7 -358 0 -282 -3 -355 -13 -364 -9 -7
-127 -12 -368 -13 l-354 -3 0 -360 0 -360 356 -3 c281 -2 359 -5 368 -15 7 -9
12 -129 13 -368 l3 -354 340 -3 c187 -1 350 0 363 3 l22 5 0 353 c0 261 3 356
12 365 9 9 104 12 364 12 312 0 353 2 358 16 8 20 8 678 0 698 -5 14 -46 16
-359 16 -282 0 -355 3 -364 13 -7 9 -12 127 -13 368 l-3 354 -356 3 c-195 1
-358 -1 -362 -5z"/>
<path d="M3100 3260 c-44 -47 -80 -92 -80 -101 0 -9 27 -42 60 -73 53 -50 64
-57 89 -51 23 5 34 1 50 -16 23 -25 27 -44 11 -54 -17 -10 -11 -41 10 -60 24
-21 17 -27 99 84 76 102 78 107 56 131 -24 26 -28 26 -129 -15 -48 -19 -96
-35 -107 -35 -19 0 -69 41 -69 57 0 4 32 42 70 83 38 41 69 78 70 81 0 3 -11
16 -25 29 l-26 24 -79 -84z m204 -192 c-17 -30 -37 -46 -50 -41 -32 12 -3 52
39 53 12 0 16 -4 11 -12z"/>
<path d="M647 3162 c-26 -26 -47 -54 -47 -63 0 -8 33 -44 73 -79 115 -104 99
-100 162 -33 50 53 67 83 47 83 -5 0 -21 -13 -37 -30 -36 -37 -44 -37 -78 -2
l-28 29 21 25 c11 15 20 29 20 32 0 13 -28 5 -45 -14 -14 -15 -22 -17 -37 -9
-29 16 -32 36 -9 65 22 28 27 44 13 44 -4 0 -29 -22 -55 -48z"/>
<path d="M556 3041 c-3 -5 14 -34 39 -64 40 -50 54 -77 40 -77 -2 0 -35 11
-72 26 l-68 25 -23 -27 c-13 -15 -20 -30 -15 -35 15 -15 230 -87 240 -81 6 4
15 17 21 29 11 19 4 31 -64 115 -78 96 -88 106 -98 89z"/>
<path d="M3445 2851 c-60 -28 -90 -65 -89 -111 2 -71 58 -121 119 -106 46 12
30 34 -22 33 -46 -2 -48 -1 -51 26 -4 36 10 53 70 83 54 27 100 31 118 9 11
-13 9 -20 -9 -38 -24 -26 -27 -47 -8 -47 20 0 47 33 47 57 0 36 -30 81 -64 97
-43 20 -62 20 -111 -3z"/>
<path d="M357 2670 c-28 -32 -61 -112 -55 -130 4 -13 182 -91 212 -93 26 -3
70 113 61 161 -9 47 -80 92 -146 92 -40 0 -51 -5 -72 -30z m90 -51 c66 -24 93
-45 93 -69 0 -28 -10 -30 -64 -9 -130 51 -141 60 -114 87 16 16 18 16 85 -9z"/>
<path d="M3540 2619 c-52 -16 -97 -35 -101 -41 -11 -17 6 -53 26 -57 10 -2 36
3 57 10 21 7 41 9 45 5 12 -12 -12 -39 -46 -51 -17 -6 -36 -16 -40 -23 -9 -15
-3 -60 10 -68 11 -6 67 22 97 49 17 16 25 18 34 9 32 -32 88 7 88 60 0 17 -8
55 -17 85 -20 64 -20 64 -153 22z m135 -59 c11 -18 -17 -41 -44 -38 -30 4 -41
34 -14 41 32 8 52 7 58 -3z"/>
<path d="M362 2423 c-87 -4 -93 -5 -104 -28 -6 -13 -8 -30 -5 -38 6 -15 196
-127 216 -127 17 0 13 15 -9 35 -35 31 -21 85 22 85 21 0 43 41 35 64 -4 10
-17 15 -34 14 -15 -1 -70 -4 -121 -5z m51 -87 c3 -7 1 -18 -5 -24 -13 -13 -72
14 -63 28 9 15 62 12 68 -4z"/>
<path d="M3619 2386 c-81 -18 -89 -22 -104 -60 -12 -29 -12 -40 -1 -72 7 -21
25 -47 39 -58 24 -18 32 -18 78 -8 28 7 61 12 74 12 38 0 80 19 68 31 -7 7
-40 4 -103 -7 l-93 -17 -19 23 c-10 12 -18 26 -18 30 0 22 36 39 102 50 105
17 120 25 116 58 -3 24 -7 27 -43 29 -22 1 -65 -4 -96 -11z"/>
<path d="M250 2202 c-21 -22 -30 -42 -35 -84 -11 -88 -9 -92 60 -99 177 -19
183 -19 189 5 9 35 7 136 -4 157 -17 30 -64 49 -125 49 -49 0 -60 -4 -85 -28z
m158 -59 c27 -6 48 -41 34 -55 -6 -6 -43 -5 -106 3 -78 10 -96 16 -94 28 7 37
72 46 166 24z"/>
<path d="M3540 2070 c0 -73 3 -90 15 -90 11 0 15 12 15 45 0 25 3 45 7 45 4 0
51 -25 105 -56 65 -37 103 -53 109 -47 5 5 9 45 7 89 -2 62 -6 79 -18 79 -11
0 -14 -9 -13 -32 2 -17 -2 -35 -7 -38 -6 -3 -50 16 -98 44 -122 71 -122 71
-122 -39z"/>
<path d="M440 1931 l0 -51 -44 0 c-41 0 -45 2 -48 27 -5 39 -26 40 -30 1 -3
-30 -6 -33 -38 -33 -33 0 -35 2 -38 38 -2 24 -8 37 -15 34 -13 -4 -11 -136 1
-149 9 -8 238 5 247 14 11 11 -9 161 -22 166 -9 2 -13 -11 -13 -47z"/>
<path d="M3531 1802 c-23 -43 -9 -62 45 -62 14 0 35 -5 46 -11 21 -11 21 -12
3 -25 -12 -9 -32 -11 -61 -7 -41 5 -44 4 -54 -22 -17 -44 -7 -55 49 -55 27 0
53 5 56 10 4 6 18 0 37 -15 36 -31 50 -31 81 -2 35 31 62 156 38 171 -5 3 -40
10 -77 16 -38 6 -88 13 -110 16 -36 6 -44 3 -53 -14z m207 -104 c2 -9 -6 -21
-16 -27 -16 -8 -25 -7 -43 8 -29 23 -17 43 24 39 20 -2 33 -9 35 -20z"/>
<path d="M355 1754 c-118 -18 -117 -18 -113 -56 4 -38 2 -38 145 -18 103 14
119 24 103 64 -11 29 -10 29 -135 10z"/>
<path d="M421 1661 c-20 -13 -4 -31 28 -31 53 0 68 -45 26 -78 -31 -24 -117
-46 -149 -38 -36 9 -41 35 -11 66 30 31 31 40 5 40 -30 0 -54 -44 -47 -88 9
-56 54 -92 115 -92 58 0 121 34 141 74 33 70 -50 184 -108 147z"/>
<path d="M3498 1565 c-16 -9 -33 -32 -44 -60 -16 -43 -16 -49 -1 -80 19 -41
46 -60 109 -76 60 -16 95 -5 125 40 27 40 30 97 7 130 -36 51 -141 76 -196 46z
m125 -84 c50 -22 67 -45 48 -64 -9 -9 -28 -7 -78 6 -82 21 -113 40 -113 69 0
19 4 20 48 15 26 -3 68 -15 95 -26z"/>
<path d="M435 1411 c-56 -26 -78 -53 -78 -99 0 -50 27 -95 68 -115 29 -14 36
-13 86 3 94 32 131 98 94 170 -32 61 -94 76 -170 41z m145 -56 c17 -20 3 -35
-62 -67 -67 -32 -99 -40 -118 -28 -30 19 23 66 109 96 47 17 56 17 71 -1z"/>
<path d="M3417 1363 c-41 -21 -53 -60 -29 -92 18 -26 164 -111 189 -111 16 0
36 37 29 55 -3 8 -46 35 -96 60 -54 27 -90 51 -87 58 5 13 9 13 45 2 19 -6 23
-4 20 10 -5 26 -39 35 -71 18z"/>
<path d="M3350 1231 c0 -6 5 -20 12 -30 9 -15 8 -24 -6 -46 -14 -22 -22 -25
-46 -20 -23 5 -32 2 -45 -19 -9 -14 -14 -30 -10 -35 3 -6 51 -24 107 -42 56
-17 107 -33 113 -35 17 -7 45 23 45 46 0 10 -32 56 -71 102 -68 78 -99 103
-99 79z m75 -101 c22 -25 15 -35 -20 -26 -16 4 -25 13 -25 26 0 26 22 26 45 0z"/>
<path d="M583 1194 c-23 -24 -25 -31 -21 -89 6 -72 -2 -96 -29 -79 -30 18 -39
42 -25 64 16 26 15 40 -3 40 -21 0 -37 -35 -29 -65 9 -35 61 -85 88 -85 13 0
35 9 49 20 23 18 26 29 29 93 3 69 4 72 28 72 34 0 51 -46 27 -73 -9 -10 -17
-24 -17 -31 0 -21 34 -7 49 21 13 23 13 30 -3 67 -33 72 -96 92 -143 45z"/>
<path d="M684 915 c-4 -10 4 -27 22 -46 25 -26 30 -28 43 -14 13 13 13 18 -6
42 -24 33 -51 41 -59 18z"/>
<path d="M3242 873 c-22 -32 -19 -53 9 -53 22 0 53 44 45 65 -9 23 -33 18 -54
-12z"/>
<path d="M890 809 c-95 -108 -100 -116 -94 -133 4 -9 15 -21 26 -27 15 -8 24
-4 50 25 34 39 58 45 78 21 7 -8 16 -15 21 -15 14 0 10 22 -7 41 -19 21 -11
54 15 69 14 7 24 3 46 -20 l28 -29 -47 -72 c-25 -40 -46 -82 -46 -94 0 -72
120 -124 167 -72 31 33 103 144 103 157 0 26 -28 0 -75 -71 -51 -76 -80 -94
-111 -69 -23 20 -17 41 38 124 l52 80 -33 25 c-19 14 -58 47 -87 74 -30 26
-58 47 -62 47 -4 0 -32 -28 -62 -61z"/>
<path d="M2982 812 c-23 -20 -42 -46 -42 -56 0 -26 48 -106 63 -106 7 0 20 14
29 30 20 36 51 39 72 8 20 -29 20 -62 0 -79 -13 -11 -21 -11 -45 3 -34 20 -49
6 -23 -23 27 -30 62 -24 105 20 30 30 39 46 39 73 0 75 -92 109 -149 54 -32
-31 -41 -32 -41 -7 0 10 16 31 36 46 24 19 34 33 32 48 -5 34 -29 30 -76 -11z"/>
<path d="M2811 693 c-38 -19 -66 -72 -55 -106 17 -59 91 -89 128 -52 8 8 19
15 25 15 13 0 25 -45 17 -65 -7 -18 -37 -20 -54 -3 -9 9 -15 9 -24 0 -15 -15
7 -42 35 -42 31 0 84 37 97 70 24 59 -22 159 -85 186 -42 17 -42 17 -84 -3z
m48 -49 c27 -34 35 -64 22 -77 -20 -20 -79 58 -67 89 8 21 22 17 45 -12z"/>
<path d="M1247 633 c-40 -71 -97 -183 -97 -192 0 -25 22 -8 48 39 15 27 30 50
33 50 4 0 10 -36 14 -80 6 -65 11 -82 27 -91 11 -6 25 -8 32 -6 14 6 116 188
116 207 0 26 -27 0 -56 -54 -17 -32 -34 -54 -38 -48 -4 6 -9 42 -13 79 -3 37
-10 76 -15 86 -9 17 -43 24 -51 10z"/>
<path d="M2593 574 c-42 -33 -46 -83 -9 -115 19 -17 24 -28 19 -49 -4 -20 1
-34 16 -49 55 -55 181 6 181 88 0 11 -17 34 -40 52 -23 18 -39 38 -36 45 2 6
-2 21 -10 33 -22 30 -80 28 -121 -5z m78 -4 c23 -13 25 -46 3 -54 -54 -21 -94
14 -54 46 26 21 26 21 51 8z m76 -146 c3 -10 -4 -26 -20 -42 -23 -22 -31 -25
-54 -16 -28 9 -39 33 -29 60 8 21 95 19 103 -2z"/>
<path d="M1437 553 c-11 -18 -78 -225 -74 -229 13 -13 116 -44 145 -44 42 0
83 40 100 98 16 51 15 67 -3 101 -19 37 -154 97 -168 74z m103 -63 c15 -28
-11 -119 -45 -157 -21 -25 -25 -26 -39 -13 -13 13 -12 25 16 103 31 88 48 105
68 67z"/>
<path d="M2401 486 c-42 -43 -43 -64 -1 -51 16 5 22 -4 40 -67 27 -90 37 -102
73 -89 15 6 27 13 27 17 0 16 -64 210 -73 222 -14 18 -19 16 -66 -32z"/>
<path d="M1698 473 c-30 -36 -107 -208 -98 -217 7 -7 16 -3 26 12 26 37 88 23
96 -23 2 -14 12 -21 36 -23 l34 -3 -8 102 c-4 57 -10 114 -14 128 -8 32 -53
46 -72 24z m2 -97 c0 -8 3 -21 6 -30 4 -10 0 -18 -11 -22 -26 -10 -38 9 -24
39 13 29 29 36 29 13z"/>
<path d="M2117 455 c-8 -8 -22 -54 -31 -102 -9 -48 -20 -100 -23 -115 -7 -36
19 -38 35 -3 15 33 77 36 87 5 8 -26 75 -29 75 -4 0 20 -68 205 -82 222 -14
16 -43 15 -61 -3z m32 -116 c14 -41 15 -39 -14 -39 -26 0 -29 9 -19 48 9 31
20 28 33 -9z"/>
<path d="M1836 451 c-4 -6 -10 -60 -13 -120 -6 -106 -5 -109 17 -121 14 -7 46
-11 82 -8 46 3 64 10 84 30 31 31 44 83 34 138 -12 66 -37 84 -124 88 -47 3
-76 0 -80 -7z m108 -27 c12 -11 16 -35 16 -88 0 -78 -15 -114 -44 -103 -13 5
-16 21 -16 81 0 66 11 126 24 126 3 0 12 -7 20 -16z"/>
</g>
</svg>
