<?xml version="1.0" encoding="utf-8"?>
<!-- Generator: Adobe Illustrator 28.1.0, SVG Export Plug-In . SVG Version: 6.00 Build 0)  -->
<svg version="1.2" baseProfile="tiny" id="Layer_1" xmlns="http://www.w3.org/2000/svg" xmlns:xlink="http://www.w3.org/1999/xlink"
	 x="0px" y="0px" viewBox="0 0 792 612" overflow="visible" xml:space="preserve">
<circle fill="#62C2A2" cx="388.66" cy="289.1" r="60.01"/>
<path fill="#FFFFFF" d="M419.15,245.64c0.59,4.72,1.77,9.25,3.05,10.53c1.28,1.28,3.15,1.67,3.25,4.13s-3.84,8.26-3.15,10.63
	c-7.87-6.69-17.32-13.86-16.04-15.73C407.53,253.32,419.15,245.64,419.15,245.64z"/>
<path fill="#FFFFFF" d="M396.73,261.32c-0.71-0.44-5.54-23.49-5.54-23.49s-2.18-3.32-5.46,0.45c-3.27,3.77-13.98,16.11-13.98,16.11
	l-12.87-9.59l-22.54,20.37c0,0,25.19,7.64,30.19,7.47S396.73,261.32,396.73,261.32z"/>
<path fill="#62C2A2" d="M366.19,259.14c-2.61,2.65,0.6,14.57-2.35,13.83c-2.96-0.75-16.55-3.92-18.72-4.64s9.98-6.79,13.22-9.19
	s-0.88-12.74,0.55-14.32c7.61,5.67,11.51,9.68,11.51,9.68L366.19,259.14z"/>
<path fill="#62C2A2" d="M388.66,235.02c-0.71,5.91,0.58,9.89,2.98,13.4c2.4,3.51,0.46,9.24,0,10.44
	c-0.46,1.2,18.58,14.51,21.35,15.06c2.77,0.55,26.58-7.82,27.5-8.55c0.92-0.74-20.82-19.27-21.83-19.46s-0.83,5.07,0.31,6.71
	c2.21,3.19,2.06,5.63,1.32,7.78c-0.87,2.54-3.42,5.85-2.86,6.4c0.55,0.55-11-8.04-14.6-13.58
	C399.22,247.68,388.66,235.02,388.66,235.02z"/>
<g>
	<g>
		<g>
			
				<circle fill="none" stroke="#20617B" stroke-width="4" stroke-linecap="round" stroke-linejoin="round" stroke-miterlimit="10" cx="388.66" cy="289.1" r="60.01"/>
		</g>
		<g>
			<path fill="none" stroke="#20617B" stroke-width="4" stroke-linecap="round" stroke-linejoin="round" stroke-miterlimit="10" d="
				M339.44,323.44c15.15-6.34,31.78-9.84,49.22-9.84c17.45,0,34.08,3.5,49.22,9.84"/>
		</g>
		<g>
			<path fill="none" stroke="#20617B" stroke-width="4" stroke-linecap="round" stroke-linejoin="round" stroke-miterlimit="10" d="
				M333.89,264.18c16.85,7.05,35.36,10.95,54.77,10.95s37.92-3.9,54.77-10.95"/>
		</g>
		<g>
			<path fill="none" stroke="#20617B" stroke-width="4" stroke-linecap="round" stroke-linejoin="round" stroke-miterlimit="10" d="
				M425.11,263.13c3.55,7.94,5.52,16.73,5.52,25.96c0,27.5-17.59,51.04-41.97,60.01"/>
		</g>
		<g>
			<path fill="none" stroke="#20617B" stroke-width="4" stroke-linecap="round" stroke-linejoin="round" stroke-miterlimit="10" d="
				M352.21,263.13c-3.55,7.94-5.52,16.73-5.52,25.96c0,27.5,17.59,51.04,41.97,60.01"/>
		</g>
		<g>
			<path fill="none" stroke="#20617B" stroke-width="4" stroke-linecap="round" stroke-linejoin="round" stroke-miterlimit="10" d="
				M388.66,229.08c7.45,2.73,14.27,6.82,20.13,11.96"/>
		</g>
		<g>
			<path fill="none" stroke="#20617B" stroke-width="4" stroke-linecap="round" stroke-linejoin="round" stroke-miterlimit="10" d="
				M411.13,288.8c0,24.98-9.02,47.36-22.47,60.31"/>
		</g>
		<g>
			
				<line fill="none" stroke="#20617B" stroke-width="4" stroke-linecap="round" stroke-linejoin="round" stroke-miterlimit="10" x1="448.68" y1="289.1" x2="328.65" y2="289.1"/>
		</g>
	</g>
</g>
<g>
	<g>
		
			<polyline fill="none" stroke="#20617B" stroke-width="4" stroke-linecap="round" stroke-linejoin="round" stroke-miterlimit="10" points="
			405.56,254.4 418.44,244.82 439.84,264.18 		"/>
	</g>
</g>
<path fill="none" stroke="#20617B" stroke-width="4" stroke-linecap="round" stroke-linejoin="round" stroke-miterlimit="10" d="
	M388.66,229.08c-7.45,2.73-14.27,6.82-20.13,11.96"/>
<g>
	<g>
		
			<line fill="none" stroke="#20617B" stroke-width="4" stroke-linecap="round" stroke-linejoin="round" stroke-miterlimit="10" x1="388.66" y1="234.92" x2="416.22" y2="266.68"/>
	</g>
</g>
<path fill="none" stroke="#20617B" stroke-width="4" stroke-linecap="round" stroke-linejoin="round" stroke-miterlimit="10" d="
	M366.19,288.8c0,24.98,9.02,47.36,22.47,60.31"/>
<g>
	<g>
		
			<polyline fill="none" stroke="#20617B" stroke-width="4" stroke-linecap="round" stroke-linejoin="round" stroke-miterlimit="10" points="
			371.76,254.4 358.89,244.82 337.48,264.18 		"/>
	</g>
</g>
<g>
	<g>
		
			<line fill="none" stroke="#20617B" stroke-width="4" stroke-linecap="round" stroke-linejoin="round" stroke-miterlimit="10" x1="388.66" y1="234.92" x2="363.27" y2="264.18"/>
	</g>
</g>
<path fill="#20617B" d="M388.66,332.22c-21.91-8.78-34.39-20.17-34.39-35.24s13.46-29.63,34.39-40.14
	c20.93,10.51,34.39,25.06,34.39,40.14S410.57,323.44,388.66,332.22z"/>
<path fill="none" stroke="#62C2A2" stroke-width="4" stroke-linecap="round" stroke-linejoin="round" stroke-miterlimit="10" d="
	M388.66,332.22c-21.91-8.78-34.39-20.17-34.39-35.24s13.46-29.63,34.39-40.14c20.93,10.51,34.39,25.06,34.39,40.14
	S410.57,323.44,388.66,332.22z"/>
<g>
	<path fill="#FFFFFF" d="M412.03,279.98c-0.29-0.27-0.95,0.03-4.97,0.44c-4.01,0.4-6.79-2.35-9.5-4.04
		c-2.71-1.68-4.01-0.17-4.53,1.24s-0.75,3.13-2.48,3.7v6.02c0,0,2.95,0.61,6.01,0.47c-0.12-0.2-1.77-1.36-2.97-3.26
		c0.87,1.11,4.01,3.23,4.56,3.26s3.18-0.67,2.83-0.91s-3.35-1.51-6.35-5.42c1.44,1.55,5.65,4.45,6.82,4.55
		c1.17,0.1,2.52-0.01,4.12-1.56c-2.89-0.94-6.93-2.05-9.41-5.79c0.92,0.94,5.31,4.37,9.82,4.51
		C410.47,283.34,412.32,280.25,412.03,279.98z"/>
	<path fill="#FFFFFF" d="M364.9,279.98c0.29-0.27,0.95,0.03,4.97,0.44c4.01,0.4,6.79-2.35,9.5-4.04c2.71-1.68,4.01-0.17,4.53,1.24
		s0.75,3.13,2.48,3.7v6.02c0,0-2.95,0.61-6.01,0.47c0.12-0.2,1.77-1.36,2.97-3.26c-0.87,1.11-4.01,3.23-4.56,3.26
		s-3.18-0.67-2.83-0.91s3.35-1.51,6.35-5.42c-1.44,1.55-5.65,4.45-6.82,4.55c-1.17,0.1-2.52-0.01-4.12-1.56
		c2.89-0.94,6.93-2.05,9.41-5.79c-0.92,0.94-5.31,4.37-9.82,4.51C366.46,283.34,364.62,280.25,364.9,279.98z"/>
	<ellipse fill="#FFFFFF" cx="388.47" cy="272.65" rx="2.73" ry="2.99"/>
	<path fill="#FFFFFF" d="M387.58,276.52c0,0,0.07,10.06,0.16,18.74c0.49,0.11,0.98,0.23,1.46,0.35c0.09-8.84,0.16-19.09,0.16-19.09
		h-0.89H387.58z"/>
	<path fill="#FFFFFF" d="M391.07,289.2c-1.36,0.02-1.36,2.22,0,2.23c1.08-0.01,2.16,0.1,3.09,0.44c2.26,0.81,1.99,2.24-0.06,3.09
		c-0.82,0.35-2.31,0.57-3.21,0.74c-0.26,0.06-0.52,0.11-0.77,0.17c1.08,0.33,2.14,0.73,3.18,1.45c1.91-0.37,4.23-1.47,4.4-3.89
		C397.61,289.91,393.53,289.22,391.07,289.2z"/>
	<path fill="#FFFFFF" d="M390.44,319.5c-0.18-0.19-0.38-0.36-0.58-0.5c-0.24-0.19-1.65-0.97-2.03-1.19
		c-0.05-0.03-0.1-0.06-0.15-0.09c-1.11-0.67-1.99-1.51-1.36-2.96c0.31-0.51,0.78-0.91,1.33-1.25c-0.21-0.1-0.43-0.2-0.64-0.29
		c-0.3-0.13-0.59-0.27-0.87-0.4c-0.98,0.84-1.59,1.95-1.28,3.59c0.22,0.95,0.83,1.61,1.56,2.13c0.44,0.31,0.91,0.57,1.37,0.82l0,0
		c0.07,0.05,1.32,0.74,1.39,0.79c0.02,0.01,0.04,0.03,0.05,0.04c1.84,1.29-0.43,2.4,0.62,3.2c0.94,0.56,1.47-1.69,1.31-2.49
		C391.08,320.34,390.79,319.87,390.44,319.5z"/>
	<path fill="#FFFFFF" d="M392.96,298.01c-1.14-0.8-2.32-1.18-3.47-1.52c-1.67-0.48-3.48-0.79-5.17-1.12
		c-1.15-0.23-2.91-0.68-3.16-2.04c0.28-1.68,3.34-1.92,4.7-1.91c1.36-0.02,1.36-2.2,0-2.23c-1.89,0.05-3.99,0.28-5.57,1.73
		c-1.46,1.3-1.36,3.6,0.08,4.86c1.49,1.41,3.53,1.56,5.36,1.89c2.1,0.41,4.5,0.75,6.29,1.91c0.71,0.48,1.17,1.23,0.92,2.09
		c-0.33,0.83-1.43,1.35-2.24,1.73c-0.36,0.18-0.74,0.33-1.12,0.48c0.69,0.27,1.43,0.59,2.1,0.99c0.45-0.21,0.89-0.44,1.31-0.72
		C395.32,302.7,395.17,299.52,392.96,298.01z"/>
	<path fill="#FFFFFF" d="M388.45,303.46c0.22,0.08,0.44,0.16,0.67,0.25c0-0.16,0-0.33,0-0.49c0.01-1.33,0.03-2.67,0.04-4
		c-0.45-0.13-0.92-0.24-1.39-0.33c0.01,1.45,0.03,2.9,0.04,4.35c0.08,0.03,0.16,0.06,0.24,0.09L388.45,303.46z"/>
	<path fill="#FFFFFF" d="M391.64,305.74c-0.73-0.49-1.62-0.87-2.53-1.21c-0.43-0.16-0.86-0.32-1.29-0.48
		c-0.16-0.06-0.33-0.12-0.49-0.18c-1.47-0.56-2.78-1.17-3.34-2.2c-0.38-1.45,1.01-2.37,2.82-2.99c-0.13-0.03-0.27-0.05-0.4-0.08
		c-0.28-0.05-0.55-0.1-0.82-0.16c-0.23-0.04-0.47-0.08-0.71-0.12c-0.36-0.06-0.73-0.12-1.1-0.19c-1.16,0.87-1.95,2.7-1.33,4.23
		c0.55,1.23,1.6,1.97,2.79,2.52c0.85,0.39,1.76,0.68,2.6,0.97c0.39,0.14,0.76,0.27,1.1,0.42c0.05,0.02,0.1,0.04,0.15,0.05
		c0.15,0.06,0.32,0.12,0.49,0.19c1.48,0.63,3.47,1.9,1.6,3.35c-0.5,0.38-1.15,0.72-1.84,1.06c0.58,0.29,1.1,0.61,1.55,0.96
		c1.57-0.81,2.82-1.86,2.44-3.99C393.08,306.98,392.45,306.29,391.64,305.74z"/>
	<path fill="#FFFFFF" d="M387.43,320.03c-0.31-0.16-0.62-0.34-0.94-0.54c-0.07,0.08-0.14,0.16-0.2,0.24
		c-0.52,0.59-0.68,1.65-0.43,2.41c0.19,0.61,0.49,1.64,1.22,1.25c0.29-0.18,0.39-0.58,0.22-0.89c-0.51-0.99-0.5-1.68,0.39-2.3
		C387.56,320.1,387.45,320.04,387.43,320.03L387.43,320.03z"/>
	<path fill="#FFFFFF" d="M388.73,311.5c-2.02-0.99-5.87-2.49-2.25-4.54c0.3-0.16,0.6-0.3,0.91-0.43l-0.25-0.09
		c-0.6-0.21-1.22-0.42-1.83-0.68c-0.41,0.28-0.79,0.61-1.14,1.01c-1.16,1.44-0.68,3.47,0.75,4.42c1.66,1.38,5.47,1.98,5.9,4.18
		c0.1,1.13-0.64,1.8-1.56,2.36c0.44,0.25,0.87,0.51,1.02,0.62c0.08,0.05,0.16,0.12,0.23,0.18c0.74-0.52,1.35-1.19,1.57-2.14
		C392.69,313.92,390.48,312.31,388.73,311.5z"/>
	<path fill="#FFFFFF" d="M388.8,320.81c-0.07-0.04-0.45-0.26-0.79-0.45c-0.01-0.01-0.02-0.01-0.04-0.02c0,0.2,0,0.4,0.01,0.58
		c0.01,0.58,0.01,1.03,0.01,1.33c0,0.23,0,0.37,0,0.41c0,0.25,0.01,0.45,0.04,0.63c0.08,0.68,0.29,0.91,0.44,0.91
		c0.19,0,0.47-0.36,0.47-1.53c0-0.09,0.01-0.71,0.01-1.73c-0.04-0.03-0.07-0.05-0.11-0.08L388.8,320.81z"/>
	<path fill="#FFFFFF" d="M388.16,317.11c0.07,0.04,0.42,0.24,0.82,0.46c0-0.19,0-0.38,0.01-0.58c0.01-0.85,0.02-1.77,0.03-2.75l0,0
		c-0.33-0.22-0.71-0.42-1.11-0.61c0.01,1.01,0.02,2.52,0.03,3.35c0.03,0.02,0.05,0.03,0.08,0.05L388.16,317.11z"/>
	<path fill="#FFFFFF" d="M388.49,310.53c0.19,0.09,0.36,0.17,0.53,0.26c0.01,0,0.02,0.01,0.03,0.02c0.01-1.2,0.03-2.85,0.03-3.62
		c-0.07-0.03-0.15-0.06-0.22-0.09l-0.17-0.06l-0.02-0.01c-0.07-0.03-0.15-0.06-0.23-0.09l-0.59-0.25v0.5
		c0.01,1.04,0.02,2.06,0.03,3.05C388.12,310.35,388.33,310.45,388.49,310.53z"/>
</g>
<g>
	<text transform="matrix(1 0 0 1 293.88 377.3409)" fill="#20617B" font-family="'NexaBold'" font-size="23.7527px">A</text>
	<text transform="matrix(1 0 0 1 316.1598 377.3409)" fill="#20617B" font-family="'NexaBold'" font-size="23.7527px">L</text>
	<text transform="matrix(1 0 0 1 334.0455 377.3409)" fill="#20617B" font-family="'NexaBold'" font-size="23.7527px">P</text>
	<text transform="matrix(1 0 0 1 354.0924 377.3409)" fill="#20617B" font-family="'NexaBold'" font-size="23.7527px">I</text>
	<text transform="matrix(1 0 0 1 364.1637 377.3409)" fill="#20617B" font-family="'NexaBold'" font-size="23.7527px">N</text>
	<text transform="matrix(1 0 0 1 385.0895 377.3409)" fill="#20617B" font-family="'NexaBold'" font-size="23.7527px">E</text>
	<text transform="matrix(1 0 0 1 403.9015 377.3409)" fill="#20617B" font-family="'NexaBold'" font-size="23.7527px">C</text>
	<text transform="matrix(1 0 0 1 424.067 377.3409)" fill="#20617B" font-family="'NexaBold'" font-size="23.7527px">U</text>
	<text transform="matrix(1 0 0 1 445.7057 377.3409)" fill="#20617B" font-family="'NexaBold'" font-size="23.7527px">R</text>
	<text transform="matrix(1 0 0 1 465.7291 377.3409)" fill="#20617B" font-family="'NexaBold'" font-size="23.7527px">E</text>
</g>
<path fill="#20617B" d="M386.59,250.51c-0.25-0.89,2.62-2.79,3.65-3.24c1.39-0.6,3.75-0.92,4.1-0.59c0.57,0.52-2.41,2.63-3.39,2.96
	C389.98,249.99,386.64,250.69,386.59,250.51z"/>
<path fill="#20617B" d="M355.72,256.11c-0.23-0.8,2.33-2.49,3.25-2.88c1.24-0.54,3.34-0.81,3.65-0.53c0.51,0.47-2.14,2.34-3.01,2.64
	C358.74,255.64,355.77,256.27,355.72,256.11z"/>
<path fill="#20617B" d="M416.23,256.32c-0.23-0.8,2.33-2.49,3.25-2.88c1.24-0.54,3.34-0.81,3.65-0.53c0.51,0.47-2.14,2.34-3.01,2.64
	S416.28,256.48,416.23,256.32z"/>
</svg>
