<svg id="omrs-logo-icon" version="1.0" xmlns="http://www.w3.org/2000/svg"
 viewBox="0 0 400.000000 400.000000"
 preserveAspectRatio="xMidYMid meet">

<g transform="translate(0.000000,400.000000) scale(0.100000,-0.100000)"
fill="#000000" stroke="none">
<path fill="#ED1B2E" d="M1647 3093 c-4 -3 -7 -165 -7 -358 0 -282 -3 -355 -13 -364 -9 -7
-127 -12 -368 -13 l-354 -3 0 -360 0 -360 356 -3 c281 -2 359 -5 368 -15 7 -9
12 -129 13 -368 l3 -354 340 -3 c187 -1 350 0 363 3 l22 5 0 353 c0 261 3 356
12 365 9 9 104 12 364 12 312 0 353 2 358 16 8 20 8 678 0 698 -5 14 -46 16
-359 16 -282 0 -355 3 -364 13 -7 9 -12 127 -13 368 l-3 354 -356 3 c-195 1
-358 -1 -362 -5z"/>
</g>
</svg>
